<?xml version="1.0" encoding="utf-8"?>
<!-- Generator: Adobe Illustrator 27.2.0, SVG Export Plug-In . SVG Version: 6.00 Build 0)  -->
<svg version="1.1" id="Слой_1" xmlns="http://www.w3.org/2000/svg" xmlns:xlink="http://www.w3.org/1999/xlink" x="0px" y="0px"
	 viewBox="0 0 256 256" style="enable-background:new 0 0 256 256;" xml:space="preserve">
<style type="text/css">
	.st0{fill-rule:evenodd;clip-rule:evenodd;fill:#A48A6F;stroke:#A48A6F;stroke-width:2;stroke-miterlimit:10;}
</style>
<g>
	<path class="st0" d="M134.5-0.5c2.3,0,4.7,0,7,0c19.7,13.2,36.7,29.3,51,48.5c3.5,0.2,6.7,1.4,9.5,3.5c0.2,7.8,2.5,14.8,7,21
		c1.7,4.2,2.7,8.5,3,13c1,26,1.7,52,2,78c12.7,11.9,26.6,22.3,41.5,31c0,1,0,2,0,3c-1.4,0.2-2.7,0-4-0.5
		c-14.3-9.4-27.8-19.9-40.5-31.5c-1.3-25.6-2-51.3-2-77c-0.1-6.4-1.8-12.4-5-18c-0.3,22-1.3,44-3,66c-1.5,1.3-2.7,1-3.5-1
		c2.6-26.2,3.4-52.6,2.5-79c-0.6-3.2-2.6-4.9-6-5c-9.6,1.9-15.6,7.6-18,17c-0.2,9.3-0.2,18.7,0,28c-9.9,9.5-16.9,20.9-21,34
		c-1.7,7.4-1.3,14.7,1,22c1.5,2.1,3.5,3.4,6,4c1.5,4.8,0.9,9.5-2,14c-2.3,3.1-4.5,6.2-6.5,9.5c5.1-1.9,10.4-2.6,16-2
		c1.2,0.5,2,1.3,2.5,2.5c0.7,2.7,0.7,5.3,0,8c-6,6.3-12.8,11.5-20.5,15.5c13,17.4,27.9,33.2,44.5,47.5c0.5,0.9,0.6,1.9,0.5,3
		c-1.1,0.1-2.1,0-3-0.5c-15.6-13.6-29.7-28.4-42.5-44.5c-3.2,6.8-7.2,13.1-12,19c-4.9,8.1-8.4,16.8-10.5,26c-1,0-2,0-3,0
		c2.9-14.5,9.1-27.5,18.5-39c2.4-4.7,4.1-9.7,5-15c7.8-3.2,14.5-7.8,20-14c1.3-3.4,0.3-5.4-3-6c-7.3,1.6-14.1,4.3-20.5,8
		c-0.8-0.3-1.5-0.8-2-1.5c5.8-7.1,10.9-14.6,15.5-22.5c0.5-2,0.7-4,0.5-6c-2.8-0.3-5.5,0.2-8,1.5c-6.3,6-11.5,12.8-15.5,20.5
		c-1,0.8-2.2,1.2-3.5,1c2.9-8.3,5.8-16.6,8.5-25c1.9-4.3,1.7-8.5-0.5-12.5c-3.7-0.4-6.5,1.1-8.5,4.5c-5.2,8.8-9.2,18.2-12,28
		c-1,0.8-2.2,1.2-3.5,1c1.5-9.4,1.3-18.7-0.5-28c-3.4-8.8-7.4-9.1-12-1c-3,13.6-3.2,27.3-0.5,41c-1.1,0.1-2.1,0-3-0.5
		c-2.4-4.1-5.7-7.1-10-9c-6.3,0-8.5,3.2-6.5,9.5c3.9,6.9,8.3,13.6,13,20c0.7,1.8,1.2,3.6,1.5,5.5c-3.8,13.1-9.1,25.6-16,37.5
		c-0.8,0.9-1.8,1.2-3,1c3.1-8.9,7-17.5,11.5-26c1.8-4.2,3.3-8.6,4.5-13c-1.3-3.3-3.2-6.3-5.5-9c-12,16.8-24.2,33.5-36.5,50
		c-1,0-2,0-3,0c-0.1-1.1,0-2.1,0.5-3c12.9-16.3,25.1-33.1,36.5-50.5c-4.3-4.9-6.9-10.6-8-17c1.5-7.2,5.9-9.9,13-8
		c2.3,1.4,4.4,2.9,6.5,4.5c0-4.8-0.2-9.6-0.5-14.5c0.6-9.3,1.4-18.5,2.5-27.5c6-10.7,13-20.7,21-30c2.3-4,2-7.7-1-11
		c-8.5,8.1-15.8,17.1-22,27c-1,0.8-2.2,1.2-3.5,1c1.4-4.4,3.5-8.4,6.5-12c5.7-6.3,11.3-12.7,17-19c2.3-4.1,3-8.4,2-13
		c-1.1-1.8-2.6-2.7-4.5-2.5c-7.5,7.1-14.6,14.6-21.5,22.5c-2.8,7.6-6.6,14.6-11.5,21c5.2,15.4,3.7,30.1-4.5,44
		c-4,4.7-8.8,8.1-14.5,10c-0.1-1.1,0-2.1,0.5-3c11.9-7,18.1-17.5,18.5-31.5c-0.6-6.6-1.6-13.1-3-19.5c3.5-6.9,7-13.9,10.5-21
		c1.5-8.1-1.5-13.8-9-17c-0.8,0.1-1.4,0.5-2,1c-10.6,17.6-20,35.9-28,55c-1,0.8-2.2,1.2-3.5,1c7.9-20.4,17.5-39.9,29-58.5
		c4.2-0.8,6.7-3.3,7.5-7.5c8.5-6,15-13.7,19.5-23c-1.9-7.1-5.9-8.9-12-5.5C72,63.3,55.8,82.1,44,104.5c-1,22.7-2,45.4-3,68
		c-12.9,10.8-26.8,20.1-41.5,28c0-1,0-2,0-3c13.2-8.4,26.1-17.4,38.5-27c1-22.6,2-45.3,3-68c11.8-20.8,27-39,45.5-54.5
		c3.4-2.5,7-4.4,11-5.5c3.2,0.3,5.9,1.6,8,4c5-3,6-7.4,3-13c-0.2-7.2,2.8-12.3,9-15.5c3.1-0.6,6.1-1.5,9-2.5
		C125.4,8.4,128.1,3,134.5-0.5z M135.5,2.5c1.7-0.2,3.4,0,5,0.5c18.9,12.6,34.8,28.1,47.5,46.5c-9.2,4.4-14.6,11.8-16,22
		c-7.7-9.1-14.2-19.1-19.5-30c-9.5-6.6-17-14.9-22.5-25c-0.7-2.3-0.7-4.7,0-7C131.7,7,133.5,4.7,135.5,2.5z M123.5,19.5
		c1.4-0.2,2.7,0,4,0.5c5.8,9.5,13.3,17.3,22.5,23.5c5.4,12.4,12.7,23.4,22,33c0.8,6,1.1,12,1,18c-4.7,5-9,10.4-13,16
		c-9.2,13.9-11.3,28.7-6.5,44.5c-4.1,2.1-7.6,4.9-10.5,8.5c1.1-4.7,1.9-9.5,2.5-14.5c0.6-5.1-1.6-7.9-6.5-8.5c-2.8-0.1-5.1,0.9-7,3
		c0-5.5,0.5-11,1.5-16.5c-1.5-6.1-4.1-11.6-8-16.5c2.7-5.5,2-10.7-2-15.5c0.6-2.6,1.4-5.1,2.5-7.5c1.4,1.7,3,3,5,4
		c2.4,5.8,5.1,11.5,8,17c1.1,1.5,2.6,2.2,4.5,2c-3.1-6.9-6.3-13.9-9.5-21c-5.6-3.3-10.3-7.6-14-13c3.5-11.4-0.5-18.4-12-21
		c-1.4-4.4,0-7.7,4-10c8.4,9.1,17.4,17.4,27,25c5,7.3,10,14.7,15,22c1,0.8,2.2,1.2,3.5,1c0-1.8-0.5-3.5-1.5-5
		c-5.7-7.5-11.2-15.2-16.5-23c-10.3-7.1-19.1-15.8-26.5-26C110.1,29,113.6,22.4,123.5,19.5z M105.5,59.5c9.3-0.5,13.2,3.8,11.5,13
		c-0.9,2.6-2.2,4.9-4,7c-6.3,5.3-12.3,11-18,17c-1.3-5.9-4.5-10.4-9.5-13.5c1-1.4,1.8-2.9,2.5-4.5C95.1,73.2,100.9,66.9,105.5,59.5z
		 M122.5,113.5c3.5,3.9,6.2,8.4,8,13.5c-1.3,7.1-2.1,14.3-2.5,21.5c-2.9,4.4-5.2,9.1-7,14c0.1-7.5-1.6-14.5-5-21
		c-3.7-2.6-7.4-2.6-11,0c-0.2-0.5-0.3-1-0.5-1.5C110.4,131,116.4,122.2,122.5,113.5z"/>
</g>
</svg>
