<?xml version="1.0" encoding="utf-8"?>
<!-- Generator: Adobe Illustrator 27.2.0, SVG Export Plug-In . SVG Version: 6.00 Build 0)  -->
<svg version="1.1" id="Слой_1" xmlns="http://www.w3.org/2000/svg" xmlns:xlink="http://www.w3.org/1999/xlink" x="0px" y="0px"
	 viewBox="0 0 256 256" style="enable-background:new 0 0 256 256;" xml:space="preserve">
<style type="text/css">
	.st0{fill-rule:evenodd;clip-rule:evenodd;fill:#A48A6F;stroke:#A48A6F;stroke-width:1.5;stroke-miterlimit:10;}
	.st1{fill-rule:evenodd;clip-rule:evenodd;fill:#A28A6F;stroke:#A48A6F;stroke-width:1.5;stroke-miterlimit:10;}
	.st2{fill-rule:evenodd;clip-rule:evenodd;fill:#A38870;stroke:#A48A6F;stroke-width:1.5;stroke-miterlimit:10;}
	.st3{fill-rule:evenodd;clip-rule:evenodd;fill:#A2896F;stroke:#A48A6F;stroke-width:1.5;stroke-miterlimit:10;}
	.st4{fill-rule:evenodd;clip-rule:evenodd;fill:#A7886F;stroke:#A48A6F;stroke-width:1.5;stroke-miterlimit:10;}
	.st5{fill-rule:evenodd;clip-rule:evenodd;fill:#9F8871;stroke:#A48A6F;stroke-width:1.5;stroke-miterlimit:10;}
	.st6{fill-rule:evenodd;clip-rule:evenodd;fill:#A68B6E;stroke:#A48A6F;stroke-width:1.5;stroke-miterlimit:10;}
	.st7{fill-rule:evenodd;clip-rule:evenodd;fill:#A58970;stroke:#A48A6F;stroke-width:1.5;stroke-miterlimit:10;}
	.st8{fill-rule:evenodd;clip-rule:evenodd;fill:#A68B6F;stroke:#A48A6F;stroke-width:1.5;stroke-miterlimit:10;}
	.st9{fill-rule:evenodd;clip-rule:evenodd;fill:#A48870;stroke:#A48A6F;stroke-width:1.5;stroke-miterlimit:10;}
</style>
<g>
	<path class="st0" d="M128.5,23.5c0.7,0.7,1.3,1.3,2,2c-1.9-0.2-4.1,0.1-6.5,1c-3.3-2.8-5.8-2.1-7.5,2c3.2,0.5,5.9,1.8,8,4
		c0,1,0,2,0,3c-2.6-3.5-5.9-4.9-10-4c-1.7-0.7-3.3-1.3-5-2c-3.9,2.1-6,5.4-6.5,10c-1.3,14,2.6,26.3,11.5,37c0.1,3.4-0.5,3.8-2,1
		c0-0.7-0.3-1-1-1c0-0.7-0.3-1-1-1c0-0.7-0.3-1-1-1c-5.6-9.9-8.8-20.5-9.5-32c-3.3-4.8-7.8-6.9-13.5-6.5c1,2.3,2,4.7,3,7
		c-0.7,0.7-1.3,0.7-2,0c-0.6-1.6-1.5-3.1-2.5-4.5c-1.8,4.6-2,9.3-0.5,14c-0.7,0.3-1.3,0.7-2,1c-1.5-5.4-1.3-10.7,0.5-16
		c1.4-3.3,3.9-4.8,7.5-4.5c1.9-7.5,6.8-10.7,14.5-9.5c3.6-0.2,6.9,0.5,10,2C119,22.3,123.5,21.6,128.5,23.5z M113.5,28.5
		c-7.2-1.7-11.4,1.3-12.5,9c-0.2-1.4-0.7-2.8-1.5-4c-0.7,1.6-0.9,3.3-0.5,5c-1.9-2-4.1-3.7-6.5-5c1-2.7,2.5-5,4.5-7
		c1.5,2.6,2.3,2.2,2.5-1c4-0.2,8,0,12,0.5C112.8,26.4,113.4,27.3,113.5,28.5z"/>
</g>
<g>
	<path class="st1" d="M107.5,31.5c0.8,2.2,1.4,4.5,2,7c-0.3,0.3-0.7,0.7-1,1C107.1,36.8,106.8,34.1,107.5,31.5z"/>
</g>
<g>
	<path class="st2" d="M163.5,47.5c-0.9-0.7-1.2-1.7-1-3c0.1-7.4-3.1-12.7-9.5-16c-3.3,2-6.6,4-10,6c-3.6,3.8-4.7,8.1-3.5,13
		c-0.7,0-1.3,0-2,0c-1.6-5.5-5.3-8.6-11-9.5c-0.9-0.7-1.5-1.5-2-2.5c0-1,0-2,0-3c1.3,0.8,2.3,2,3,3.5c3.2,0.8,6,2.3,8.5,4.5
		c0.3-2,0.7-4,1-6c0.7,0.7,1.3,1.3,2,2c1.9-3.6,4.7-6.1,8.5-7.5c-1.3-3.1-3.6-5-7-5.5c-3.4,0.7-6.7,1.3-10,2c-0.7-0.7-1.3-1.3-2-2
		c5.7-1.5,11.4-1.6,17-0.5c1.5,1.5,3,3,4.5,4.5c2.6-1.4,5.1-1.2,7.5,0.5C162.9,33.4,164.9,39.9,163.5,47.5z"/>
</g>
<g>
	<path class="st3" d="M148.5,33.5c1.3,2.2,1.3,4.5,0,7C148.2,38.3,148.2,36,148.5,33.5z"/>
</g>
<g>
	<path class="st4" d="M126.5,41.5c1.1,0.3,1.8,1.1,2,2.5c-0.2,0.8-0.3,1.7-0.5,2.5C127.4,44.8,126.9,43.2,126.5,41.5z"/>
</g>
<g>
	<path class="st5" d="M108.5,47.5c1.1-1.2,1.9-0.9,2.5,1c0.8,1.4,0.6,2.8-0.5,4C109.8,50.7,109.2,49,108.5,47.5z"/>
</g>
<g>
	<path class="st6" d="M162.5,44.5c-0.2,1.4,0.1,2.6,1,3.4c-3.5,18.9-13.2,32-29,39.3c0,1.1,0,2.2,0,3.4c10.6,3.1,17,10.8,19,23
		c-0.5,0.6-1,1.1-1.5,1.7c-6.2-7.7-13.6-13.7-22-18c-0.8,0.2-1.4,0.5-2,1.1c0.7,22.4,0.7,44.9,0,67.3c3.4-4.4,7.2-8.1,11.5-11.2
		c0,0.7,0.3,1.1,1,1.1c-5,4.6-9.5,9.9-13.5,15.7c-0.6,3.7-1.1,7.5-1.5,11.2c-0.7-0.7-1.3-1.5-2-2.2c3.1-27.2,3.8-54.5,2-81.9
		c-12.1,7-23.1,5.1-33-5.6c0.7-0.4,1.3-0.7,2-1.1c5.6,1.2,11.3,1.4,17,0.6c1.9-0.2,3.6-1,5-2.2c-17.5-4.4-28.8-16.2-34-35.3
		c0.7-0.4,1.3-0.7,2-1.1c4,16.6,13.3,26.9,28,30.9c-7.4-6.2-13.2-13.9-17.5-23c-0.7-1.1-0.7-2.2,0-3.4c3.9,7.6,8.8,14.3,14.5,20.2
		c0.7,0,1,0.4,1,1.1c0.7,0,1,0.4,1,1.1c0.7,0,1,0.4,1,1.1c1.5,3.1,2.1,2.7,2-1.1c2.3,2,4.4,4.2,6.5,6.7c-1.4-5.4-3.4-10.6-6-15.7
		c-1.5-3.4-2-6.7-1.5-10.1c2.9,9,6.5,17.6,11,25.8c1.3,1.3,2.6,1.3,4,0c0.8-6.7,1.3-13.4,1.5-20.2c1.3,5.4,1.9,11,2,16.8
		c7.1-10.9,9-22.9,5.5-35.9c0.7,0,1.3,0,2,0c0.6,2.6,1.2,5.2,2,7.9c1.7-2,3.2-4.2,4.5-6.7c-0.2,4.2-1.5,7.9-4,11.2
		c-1.2,6-2.2,12-3,18c4.7-6.7,8.8-13.8,12.5-21.3c0.7-1.5,1.3-1.5,2,0c-4.1,10.1-9.7,18.9-17,26.4c10.4-5.3,17.9-14.1,22.5-26.4
		C160.3,52.6,161.5,48.5,162.5,44.5z M131.5,89.4c-3,8.3-6.6,8.7-11,1.1C124.2,90.6,127.9,90.2,131.5,89.4z M136.5,93.9
		c-1.9,0.3-2.7-0.5-2.5-2.2C135,92.3,135.8,93,136.5,93.9z M116.5,92.7c0.7-0.1,1.4,0,2,0.6c-4,2.6-8.4,3.4-13,2.2
		C109.4,95.1,113.1,94.1,116.5,92.7z M119.5,95c0.7-0.1,1.4,0,2,0.6c-5.4,6-11.4,6.7-18,2.2c2.3-0.4,4.7-0.2,7,0.6
		C113.9,98.1,116.9,97,119.5,95z M140.5,96.1c1.5-0.1,2.5,0.7,3,2.2C142,98.4,141,97.7,140.5,96.1z M136.5,97.2
		c2.2,0.3,3.8,1.4,5,3.4C139.3,100.3,137.7,99.2,136.5,97.2z M146.5,101.7c1.5,1.9,2.5,4.1,3,6.7C146.5,107,145.5,104.8,146.5,101.7
		z"/>
</g>
<g>
	<path class="st7" d="M128.5,52.5c0.6,0.1,1.1,0.4,1.5,1c0.7,2.3,0.7,4.7,0,7C128.6,58.1,128.1,55.4,128.5,52.5z"/>
</g>
<g>
	<path class="st8" d="M163,124.9c-0.2,1.5-0.9,2.9-2,4c0.7,0.7,1.4,1.3,2,2c-0.7,0-1,0.3-1,1c-0.8,0.3-1.2,1-1,2
		c-9.7,12-20.7,22.7-33,32c-0.7,0-1-0.3-1-1c12.5-9,23.1-19.8,32-32.5c-5,3.2-10.3,6.2-16,9c-4.9,3.7-9.2,7.9-13,12.5
		c-0.7,0-1.3,0-2,0c6.3-9.2,14.7-16,25-20.5C156.2,130.3,159.5,127.5,163,124.9z"/>
</g>
<g>
	<path class="st9" d="M127.1,169.2c-2.4-1-2.4-1.7,0-2c1,0.2,1.7-0.2,2-1c17.3-4.7,28.3-15.7,33-33c0.8-0.3,1.2-1,1-2
		c0.7,0,1-0.3,1-1c-0.6-0.7-1.3-1.3-2-2c1.1-1.1,1.8-2.5,2-4c1.1-1.9,2.4-3.5,4-5c1.1,1.2,1.3,2.6,0.5,4c-3.1,10.8-7.8,20.8-14,30
		C146.7,160.9,137.6,166.2,127.1,169.2z"/>
</g>
</svg>
